<svg width="100" height="106" viewBox="0 0 100 106" fill="none" xmlns="http://www.w3.org/2000/svg">
<path d="M96.0196 86.4156C93.5143 80.4812 89.8785 75.0907 85.3149 70.5445C80.7652 65.9852 75.3756 62.3501 69.4438 59.8398C69.3907 59.8133 69.3376 59.8 69.2845 59.7734C77.5587 53.7969 82.9376 44.0617 82.9376 33.0781C82.9376 14.8828 68.1954 0.140625 50.0001 0.140625C31.8048 0.140625 17.0626 14.8828 17.0626 33.0781C17.0626 44.0617 22.4415 53.7969 30.7157 59.7867C30.6626 59.8133 30.6095 59.8266 30.5563 59.8531C24.6063 62.3633 19.2673 65.9625 14.6852 70.5578C10.1259 75.1075 6.49077 80.4971 3.98056 86.4289C1.51452 92.2362 0.184536 98.4623 0.062588 104.77C0.0590431 104.912 0.083906 105.053 0.135712 105.185C0.187519 105.317 0.26522 105.437 0.364237 105.539C0.463255 105.64 0.581585 105.721 0.712256 105.776C0.842927 105.831 0.983295 105.859 1.12509 105.859H9.09384C9.67821 105.859 10.1431 105.395 10.1563 104.823C10.422 94.5703 14.5392 84.968 21.8173 77.6898C29.3477 70.1594 39.3485 66.0156 50.0001 66.0156C60.6517 66.0156 70.6524 70.1594 78.1829 77.6898C85.461 84.968 89.5782 94.5703 89.8438 104.823C89.8571 105.408 90.322 105.859 90.9063 105.859H98.8751C99.0169 105.859 99.1573 105.831 99.2879 105.776C99.4186 105.721 99.5369 105.64 99.6359 105.539C99.735 105.437 99.8127 105.317 99.8645 105.185C99.9163 105.053 99.9411 104.912 99.9376 104.77C99.8048 98.4219 98.4899 92.2461 96.0196 86.4156ZM50.0001 55.9219C43.904 55.9219 38.1665 53.5445 33.8501 49.2281C29.5337 44.9117 27.1563 39.1742 27.1563 33.0781C27.1563 26.982 29.5337 21.2445 33.8501 16.9281C38.1665 12.6117 43.904 10.2344 50.0001 10.2344C56.0962 10.2344 61.8337 12.6117 66.1501 16.9281C70.4665 21.2445 72.8438 26.982 72.8438 33.0781C72.8438 39.1742 70.4665 44.9117 66.1501 49.2281C61.8337 53.5445 56.0962 55.9219 50.0001 55.9219Z" fill="#02024677"/>
</svg>
